<svg width="136" height="40" viewBox="0 0 136 40" fill="none" xmlns="http://www.w3.org/2000/svg">
<path d="M18.5 40C28.7173 40 37 31.7173 37 21.5C37 11.2827 28.7173 3 18.5 3C8.28273 3 0 11.2827 0 21.5C0 31.7173 8.28273 40 18.5 40Z" fill="#FAC960"/>
<path opacity="0.3" d="M24.2809 19.9309L26.1186 16.9771L18.4027 14.0472L22.4288 9.54969L20.6857 7.82782L12.7211 13.0229L14.3594 14.8311L12.7211 16.9771L18.4582 20.8093L11.2096 26.6601L19.044 33.3071L28.0021 22.2044L24.2809 19.9309Z" fill="white"/>
<path d="M15.072 24.9088C12.234 24.9088 9.93314 27.2096 9.93314 30.0477C9.93314 32.8857 12.234 35.1866 15.072 35.1866C17.9101 35.1866 20.2109 32.8857 20.2109 30.0477C20.2109 27.2096 17.9101 24.9088 15.072 24.9088ZM24.6646 16.6866C22.583 16.6866 20.8961 18.3735 20.8961 20.4551C20.8961 22.5367 22.583 24.2236 24.6646 24.2236C26.7462 24.2236 28.4331 22.5367 28.4331 20.4551C28.4331 18.3735 26.7455 16.6866 24.6646 16.6866ZM14.2197 17.4841C15.5914 17.4841 16.7035 16.3721 16.7035 15.0003C16.7035 13.6286 15.5914 12.5165 14.2197 12.5165C12.8479 12.5165 11.7359 13.6286 11.7359 15.0003C11.7359 16.3721 12.8479 17.4841 14.2197 17.4841ZM22.8132 8.65963C22.8132 7.9813 22.2637 7.43178 21.5854 7.43178C20.9071 7.43178 20.3575 7.9813 20.3575 8.65963C20.3575 9.33796 20.9071 9.88748 21.5854 9.88748C22.2637 9.88748 22.8132 9.33796 22.8132 8.65963Z" fill="white"/>
<path d="M62.0469 17.5156C62.0469 17.099 61.9531 16.7135 61.7656 16.3594C61.5885 15.9948 61.2188 15.6667 60.6562 15.375C60.1042 15.0729 59.2708 14.8125 58.1562 14.5938C57.2188 14.3958 56.3698 14.1615 55.6094 13.8906C54.8594 13.6198 54.2188 13.2917 53.6875 12.9062C53.1667 12.5208 52.7656 12.0677 52.4844 11.5469C52.2031 11.026 52.0625 10.4167 52.0625 9.71875C52.0625 9.05208 52.2083 8.42188 52.5 7.82812C52.8021 7.23438 53.224 6.70833 53.7656 6.25C54.3177 5.79167 54.9792 5.43229 55.75 5.17188C56.5208 4.91146 57.3802 4.78125 58.3281 4.78125C59.6823 4.78125 60.8385 5.02083 61.7969 5.5C62.7552 5.97917 63.4896 6.61979 64 7.42188C64.5104 8.21354 64.7656 9.09375 64.7656 10.0625H61.875C61.875 9.59375 61.7344 9.14062 61.4531 8.70312C61.1823 8.25521 60.7812 7.88542 60.25 7.59375C59.7292 7.30208 59.0885 7.15625 58.3281 7.15625C57.526 7.15625 56.875 7.28125 56.375 7.53125C55.8854 7.77083 55.526 8.07812 55.2969 8.45312C55.0781 8.82812 54.9688 9.22396 54.9688 9.64062C54.9688 9.95312 55.0208 10.2344 55.125 10.4844C55.2396 10.724 55.4375 10.9479 55.7188 11.1562C56 11.3542 56.3958 11.5417 56.9062 11.7188C57.4167 11.8958 58.0677 12.0729 58.8594 12.25C60.2448 12.5625 61.3854 12.9375 62.2812 13.375C63.1771 13.8125 63.8438 14.349 64.2812 14.9844C64.7188 15.6198 64.9375 16.3906 64.9375 17.2969C64.9375 18.0365 64.7812 18.7135 64.4688 19.3281C64.1667 19.9427 63.724 20.474 63.1406 20.9219C62.5677 21.3594 61.8802 21.7031 61.0781 21.9531C60.2865 22.1927 59.3958 22.3125 58.4062 22.3125C56.9167 22.3125 55.6562 22.0469 54.625 21.5156C53.5938 20.9844 52.8125 20.2969 52.2812 19.4531C51.75 18.6094 51.4844 17.7188 51.4844 16.7812H54.3906C54.4323 17.5729 54.6615 18.2031 55.0781 18.6719C55.4948 19.1302 56.0052 19.4583 56.6094 19.6562C57.2135 19.8438 57.8125 19.9375 58.4062 19.9375C59.1979 19.9375 59.8594 19.8333 60.3906 19.625C60.9323 19.4167 61.3438 19.1302 61.625 18.7656C61.9062 18.401 62.0469 17.9844 62.0469 17.5156ZM71.625 8.34375V28.5H68.7188V5.09375H71.375L71.625 8.34375ZM83.0156 13.4062V13.7344C83.0156 14.9635 82.8698 16.1042 82.5781 17.1562C82.2865 18.1979 81.8594 19.1042 81.2969 19.875C80.7448 20.6458 80.0625 21.2448 79.25 21.6719C78.4375 22.099 77.5052 22.3125 76.4531 22.3125C75.3802 22.3125 74.4323 22.1354 73.6094 21.7812C72.7865 21.4271 72.0885 20.9115 71.5156 20.2344C70.9427 19.5573 70.4844 18.7448 70.1406 17.7969C69.8073 16.849 69.5781 15.7812 69.4531 14.5938V12.8438C69.5781 11.5938 69.8125 10.474 70.1562 9.48438C70.5 8.49479 70.9531 7.65104 71.5156 6.95312C72.0885 6.24479 72.7812 5.70833 73.5938 5.34375C74.4062 4.96875 75.3438 4.78125 76.4062 4.78125C77.4688 4.78125 78.4115 4.98958 79.2344 5.40625C80.0573 5.8125 80.75 6.39583 81.3125 7.15625C81.875 7.91667 82.2969 8.82812 82.5781 9.89062C82.8698 10.9427 83.0156 12.1146 83.0156 13.4062ZM80.1094 13.7344V13.4062C80.1094 12.5625 80.0208 11.7708 79.8438 11.0312C79.6667 10.2812 79.3906 9.625 79.0156 9.0625C78.651 8.48958 78.1823 8.04167 77.6094 7.71875C77.0365 7.38542 76.3542 7.21875 75.5625 7.21875C74.8333 7.21875 74.1979 7.34375 73.6562 7.59375C73.125 7.84375 72.6719 8.18229 72.2969 8.60938C71.9219 9.02604 71.6146 9.50521 71.375 10.0469C71.1458 10.5781 70.974 11.1302 70.8594 11.7031V15.75C71.0677 16.4792 71.3594 17.1667 71.7344 17.8125C72.1094 18.4479 72.6094 18.9635 73.2344 19.3594C73.8594 19.7448 74.6458 19.9375 75.5938 19.9375C76.375 19.9375 77.0469 19.776 77.6094 19.4531C78.1823 19.1198 78.651 18.6667 79.0156 18.0938C79.3906 17.5208 79.6667 16.8646 79.8438 16.125C80.0208 15.375 80.1094 14.5781 80.1094 13.7344ZM96.6719 19.1094V10.4062C96.6719 9.73958 96.5365 9.16146 96.2656 8.67188C96.0052 8.17188 95.6094 7.78646 95.0781 7.51562C94.5469 7.24479 93.8906 7.10938 93.1094 7.10938C92.3802 7.10938 91.7396 7.23438 91.1875 7.48438C90.6458 7.73438 90.2188 8.0625 89.9062 8.46875C89.6042 8.875 89.4531 9.3125 89.4531 9.78125H86.5625C86.5625 9.17708 86.7188 8.57812 87.0312 7.98438C87.3438 7.39062 87.7917 6.85417 88.375 6.375C88.9688 5.88542 89.6771 5.5 90.5 5.21875C91.3333 4.92708 92.2604 4.78125 93.2812 4.78125C94.5104 4.78125 95.5938 4.98958 96.5312 5.40625C97.4792 5.82292 98.2188 6.45312 98.75 7.29688C99.2917 8.13021 99.5625 9.17708 99.5625 10.4375V18.3125C99.5625 18.875 99.6094 19.474 99.7031 20.1094C99.8073 20.7448 99.9583 21.2917 100.156 21.75V22H97.1406C96.9948 21.6667 96.8802 21.224 96.7969 20.6719C96.7135 20.1094 96.6719 19.5885 96.6719 19.1094ZM97.1719 11.75L97.2031 13.7812H94.2812C93.4583 13.7812 92.724 13.849 92.0781 13.9844C91.4323 14.1094 90.8906 14.3021 90.4531 14.5625C90.0156 14.8229 89.6823 15.151 89.4531 15.5469C89.224 15.9323 89.1094 16.3854 89.1094 16.9062C89.1094 17.4375 89.2292 17.9219 89.4688 18.3594C89.7083 18.7969 90.0677 19.1458 90.5469 19.4062C91.0365 19.6562 91.6354 19.7812 92.3438 19.7812C93.2292 19.7812 94.0104 19.5938 94.6875 19.2188C95.3646 18.8438 95.901 18.3854 96.2969 17.8438C96.7031 17.3021 96.9219 16.776 96.9531 16.2656L98.1875 17.6562C98.1146 18.0938 97.9167 18.5781 97.5938 19.1094C97.2708 19.6406 96.8385 20.151 96.2969 20.6406C95.7656 21.1198 95.1302 21.5208 94.3906 21.8438C93.6615 22.1562 92.8385 22.3125 91.9219 22.3125C90.776 22.3125 89.7708 22.0885 88.9062 21.6406C88.0521 21.1927 87.3854 20.5938 86.9062 19.8438C86.4375 19.0833 86.2031 18.2344 86.2031 17.2969C86.2031 16.3906 86.3802 15.5938 86.7344 14.9062C87.0885 14.2083 87.599 13.6302 88.2656 13.1719C88.9323 12.7031 89.7344 12.349 90.6719 12.1094C91.6094 11.8698 92.6562 11.75 93.8125 11.75H97.1719ZM110.875 19.9375C111.562 19.9375 112.198 19.7969 112.781 19.5156C113.365 19.2344 113.844 18.849 114.219 18.3594C114.594 17.8594 114.807 17.2917 114.859 16.6562H117.609C117.557 17.6562 117.219 18.5885 116.594 19.4531C115.979 20.3073 115.172 21 114.172 21.5312C113.172 22.0521 112.073 22.3125 110.875 22.3125C109.604 22.3125 108.495 22.0885 107.547 21.6406C106.609 21.1927 105.828 20.5781 105.203 19.7969C104.589 19.0156 104.125 18.1198 103.812 17.1094C103.51 16.0885 103.359 15.0104 103.359 13.875V13.2188C103.359 12.0833 103.51 11.0104 103.812 10C104.125 8.97917 104.589 8.07812 105.203 7.29688C105.828 6.51562 106.609 5.90104 107.547 5.45312C108.495 5.00521 109.604 4.78125 110.875 4.78125C112.198 4.78125 113.354 5.05208 114.344 5.59375C115.333 6.125 116.109 6.85417 116.672 7.78125C117.245 8.69792 117.557 9.73958 117.609 10.9062H114.859C114.807 10.2083 114.609 9.57812 114.266 9.01562C113.932 8.45312 113.474 8.00521 112.891 7.67188C112.318 7.32812 111.646 7.15625 110.875 7.15625C109.99 7.15625 109.245 7.33333 108.641 7.6875C108.047 8.03125 107.573 8.5 107.219 9.09375C106.875 9.67708 106.625 10.3281 106.469 11.0469C106.323 11.7552 106.25 12.4792 106.25 13.2188V13.875C106.25 14.6146 106.323 15.3438 106.469 16.0625C106.615 16.7812 106.859 17.4323 107.203 18.0156C107.557 18.599 108.031 19.0677 108.625 19.4219C109.229 19.7656 109.979 19.9375 110.875 19.9375ZM127.875 22.3125C126.698 22.3125 125.63 22.1146 124.672 21.7188C123.724 21.3125 122.906 20.7448 122.219 20.0156C121.542 19.2865 121.021 18.4219 120.656 17.4219C120.292 16.4219 120.109 15.3281 120.109 14.1406V13.4844C120.109 12.1094 120.312 10.8854 120.719 9.8125C121.125 8.72917 121.677 7.8125 122.375 7.0625C123.073 6.3125 123.865 5.74479 124.75 5.35938C125.635 4.97396 126.552 4.78125 127.5 4.78125C128.708 4.78125 129.75 4.98958 130.625 5.40625C131.51 5.82292 132.234 6.40625 132.797 7.15625C133.359 7.89583 133.776 8.77083 134.047 9.78125C134.318 10.7812 134.453 11.875 134.453 13.0625V14.3594H121.828V12H131.562V11.7812C131.521 11.0312 131.365 10.3021 131.094 9.59375C130.833 8.88542 130.417 8.30208 129.844 7.84375C129.271 7.38542 128.49 7.15625 127.5 7.15625C126.844 7.15625 126.24 7.29688 125.688 7.57812C125.135 7.84896 124.661 8.25521 124.266 8.79688C123.87 9.33854 123.562 10 123.344 10.7812C123.125 11.5625 123.016 12.4635 123.016 13.4844V14.1406C123.016 14.9427 123.125 15.6979 123.344 16.4062C123.573 17.1042 123.901 17.7188 124.328 18.25C124.766 18.7812 125.292 19.1979 125.906 19.5C126.531 19.8021 127.24 19.9531 128.031 19.9531C129.052 19.9531 129.917 19.7448 130.625 19.3281C131.333 18.9115 131.953 18.3542 132.484 17.6562L134.234 19.0469C133.87 19.599 133.406 20.125 132.844 20.625C132.281 21.125 131.589 21.5312 130.766 21.8438C129.953 22.1562 128.99 22.3125 127.875 22.3125Z" fill="#2E2E2E"/>
</svg>
